<svg xmlns="http://www.w3.org/2000/svg" width="95" height="472" viewBox="0 0 95 472" fill="none">
<path d="M0.333333 11C0.333333 16.891 5.10896 21.6667 11 21.6667C16.891 21.6667 21.6667 16.891 21.6667 11C21.6667 5.10896 16.891 0.333333 11 0.333333C5.10896 0.333333 0.333333 5.10896 0.333333 11ZM73.3333 11C73.3333 16.891 78.109 21.6667 84 21.6667C89.891 21.6667 94.6667 16.891 94.6667 11C94.6667 5.10896 89.891 0.333333 84 0.333333C78.109 0.333333 73.3333 5.10896 73.3333 11ZM11 13H84V9H11V13Z" fill="#0E0E0E"/>
<path d="M0.333333 146C0.333333 151.891 5.10896 156.667 11 156.667C16.891 156.667 21.6667 151.891 21.6667 146C21.6667 140.109 16.891 135.333 11 135.333C5.10896 135.333 0.333333 140.109 0.333333 146ZM73.3333 146C73.3333 151.891 78.109 156.667 84 156.667C89.891 156.667 94.6667 151.891 94.6667 146C94.6667 140.109 89.891 135.333 84 135.333C78.109 135.333 73.3333 140.109 73.3333 146ZM11 148H84V144H11V148Z" fill="#0E0E0E"/>
<path d="M0.333333 281C0.333333 286.891 5.10896 291.667 11 291.667C16.891 291.667 21.6667 286.891 21.6667 281C21.6667 275.109 16.891 270.333 11 270.333C5.10896 270.333 0.333333 275.109 0.333333 281ZM73.3333 281C73.3333 286.891 78.109 291.667 84 291.667C89.891 291.667 94.6667 286.891 94.6667 281C94.6667 275.109 89.891 270.333 84 270.333C78.109 270.333 73.3333 275.109 73.3333 281ZM11 283H84V279H11V283Z" fill="#0E0E0E"/>
<path d="M0.333333 416C0.333333 421.891 5.10896 426.667 11 426.667C16.891 426.667 21.6667 421.891 21.6667 416C21.6667 410.109 16.891 405.333 11 405.333C5.10896 405.333 0.333333 410.109 0.333333 416ZM73.3333 416C73.3333 421.891 78.109 426.667 84 426.667C89.891 426.667 94.6667 421.891 94.6667 416C94.6667 410.109 89.891 405.333 84 405.333C78.109 405.333 73.3333 410.109 73.3333 416ZM11 418H84V414H11V418Z" fill="#0E0E0E"/>
<path d="M0.333333 56C0.333333 61.891 5.10896 66.6667 11 66.6667C16.891 66.6667 21.6667 61.891 21.6667 56C21.6667 50.109 16.891 45.3333 11 45.3333C5.10896 45.3333 0.333333 50.109 0.333333 56ZM73.3333 56C73.3333 61.891 78.109 66.6667 84 66.6667C89.891 66.6667 94.6667 61.891 94.6667 56C94.6667 50.109 89.891 45.3333 84 45.3333C78.109 45.3333 73.3333 50.109 73.3333 56ZM11 58H84V54H11V58Z" fill="#0E0E0E"/>
<path d="M0.333333 191C0.333333 196.891 5.10896 201.667 11 201.667C16.891 201.667 21.6667 196.891 21.6667 191C21.6667 185.109 16.891 180.333 11 180.333C5.10896 180.333 0.333333 185.109 0.333333 191ZM73.3333 191C73.3333 196.891 78.109 201.667 84 201.667C89.891 201.667 94.6667 196.891 94.6667 191C94.6667 185.109 89.891 180.333 84 180.333C78.109 180.333 73.3333 185.109 73.3333 191ZM11 193H84V189H11V193Z" fill="#0E0E0E"/>
<path d="M0.333333 326C0.333333 331.891 5.10896 336.667 11 336.667C16.891 336.667 21.6667 331.891 21.6667 326C21.6667 320.109 16.891 315.333 11 315.333C5.10896 315.333 0.333333 320.109 0.333333 326ZM73.3333 326C73.3333 331.891 78.109 336.667 84 336.667C89.891 336.667 94.6667 331.891 94.6667 326C94.6667 320.109 89.891 315.333 84 315.333C78.109 315.333 73.3333 320.109 73.3333 326ZM11 328H84V324H11V328Z" fill="#0E0E0E"/>
<path d="M0.333333 461C0.333333 466.891 5.10896 471.667 11 471.667C16.891 471.667 21.6667 466.891 21.6667 461C21.6667 455.109 16.891 450.333 11 450.333C5.10896 450.333 0.333333 455.109 0.333333 461ZM73.3333 461C73.3333 466.891 78.109 471.667 84 471.667C89.891 471.667 94.6667 466.891 94.6667 461C94.6667 455.109 89.891 450.333 84 450.333C78.109 450.333 73.3333 455.109 73.3333 461ZM11 463H84V459H11V463Z" fill="#0E0E0E"/>
<path d="M0.333333 101C0.333333 106.891 5.10896 111.667 11 111.667C16.891 111.667 21.6667 106.891 21.6667 101C21.6667 95.109 16.891 90.3333 11 90.3333C5.10896 90.3333 0.333333 95.109 0.333333 101ZM73.3333 101C73.3333 106.891 78.109 111.667 84 111.667C89.891 111.667 94.6667 106.891 94.6667 101C94.6667 95.109 89.891 90.3333 84 90.3333C78.109 90.3333 73.3333 95.109 73.3333 101ZM11 103H84V99H11V103Z" fill="#0E0E0E"/>
<path d="M0.333333 236C0.333333 241.891 5.10896 246.667 11 246.667C16.891 246.667 21.6667 241.891 21.6667 236C21.6667 230.109 16.891 225.333 11 225.333C5.10896 225.333 0.333333 230.109 0.333333 236ZM73.3333 236C73.3333 241.891 78.109 246.667 84 246.667C89.891 246.667 94.6667 241.891 94.6667 236C94.6667 230.109 89.891 225.333 84 225.333C78.109 225.333 73.3333 230.109 73.3333 236ZM11 238H84V234H11V238Z" fill="#0E0E0E"/>
<path d="M0.333333 371C0.333333 376.891 5.10896 381.667 11 381.667C16.891 381.667 21.6667 376.891 21.6667 371C21.6667 365.109 16.891 360.333 11 360.333C5.10896 360.333 0.333333 365.109 0.333333 371ZM73.3333 371C73.3333 376.891 78.109 381.667 84 381.667C89.891 381.667 94.6667 376.891 94.6667 371C94.6667 365.109 89.891 360.333 84 360.333C78.109 360.333 73.3333 365.109 73.3333 371ZM11 373H84V369H11V373Z" fill="#0E0E0E"/>
</svg>