<svg width="160" height="88" viewBox="0 0 160 88" fill="none" xmlns="http://www.w3.org/2000/svg">
<path d="M10 82.077C10 84.8384 7.76142 87.077 5 87.077C2.23858 87.077 0 84.8384 0 82.077C0 79.3155 2.23858 77.077 5 77.077C7.76142 77.077 10 79.3155 10 82.077Z" fill="#0B9AEA" fill-opacity="0.46"/>
<circle cx="94.9231" cy="82.077" r="5" fill="#0B9AEA" fill-opacity="0.46"/>
<circle cx="34.9744" cy="82.077" r="5" fill="#0B9AEA" fill-opacity="0.46"/>
<circle cx="124.897" cy="82.077" r="5" fill="#0B9AEA" fill-opacity="0.46"/>
<circle cx="64.9487" cy="82.077" r="5" fill="#0B9AEA" fill-opacity="0.46"/>
<circle cx="154.872" cy="82.077" r="5" fill="#0B9AEA" fill-opacity="0.46"/>
<path d="M10 30.6924C10 33.4538 7.76142 35.6924 5 35.6924C2.23858 35.6924 0 33.4538 0 30.6924C0 27.9309 2.23858 25.6924 5 25.6924C7.76142 25.6924 10 27.9309 10 30.6924Z" fill="#0B9AEA" fill-opacity="0.46"/>
<circle cx="94.9231" cy="30.6924" r="5" fill="#0B9AEA" fill-opacity="0.46"/>
<circle cx="34.9744" cy="30.6924" r="5" fill="#0B9AEA" fill-opacity="0.46"/>
<circle cx="124.897" cy="30.6924" r="5" fill="#0B9AEA" fill-opacity="0.46"/>
<circle cx="64.9487" cy="30.6924" r="5" fill="#0B9AEA" fill-opacity="0.46"/>
<circle cx="154.872" cy="30.6924" r="5" fill="#0B9AEA" fill-opacity="0.46"/>
<path d="M10 56.3847C10 59.1461 7.76142 61.3847 5 61.3847C2.23858 61.3847 0 59.1461 0 56.3847C0 53.6233 2.23858 51.3847 5 51.3847C7.76142 51.3847 10 53.6233 10 56.3847Z" fill="#0B9AEA" fill-opacity="0.46"/>
<circle cx="94.9231" cy="56.3847" r="5" fill="#0B9AEA" fill-opacity="0.46"/>
<circle cx="34.9744" cy="56.3847" r="5" fill="#0B9AEA" fill-opacity="0.46"/>
<circle cx="124.897" cy="56.3847" r="5" fill="#0B9AEA" fill-opacity="0.46"/>
<circle cx="64.9487" cy="56.3847" r="5" fill="#0B9AEA" fill-opacity="0.46"/>
<circle cx="154.872" cy="56.3847" r="5" fill="#0B9AEA" fill-opacity="0.46"/>
<path d="M10 5.00006C10 7.76148 7.76142 10.0001 5 10.0001C2.23858 10.0001 0 7.76148 0 5.00006C0 2.23864 2.23858 6.10352e-05 5 6.10352e-05C7.76142 6.10352e-05 10 2.23864 10 5.00006Z" fill="#0B9AEA" fill-opacity="0.46"/>
<circle cx="94.9231" cy="5.00006" r="5" fill="#0B9AEA" fill-opacity="0.46"/>
<circle cx="34.9744" cy="5.00006" r="5" fill="#0B9AEA" fill-opacity="0.46"/>
<circle cx="124.897" cy="5.00006" r="5" fill="#0B9AEA" fill-opacity="0.46"/>
<circle cx="64.9487" cy="5.00006" r="5" fill="#0B9AEA" fill-opacity="0.46"/>
<circle cx="154.872" cy="5.00006" r="5" fill="#0B9AEA" fill-opacity="0.46"/>
</svg>
