<svg width="152" height="88" viewBox="0 0 152 88" fill="none" xmlns="http://www.w3.org/2000/svg">
<path d="M10 82.0769C10 84.8383 7.76142 87.0769 5 87.0769C2.23858 87.0769 0 84.8383 0 82.0769C0 79.3155 2.23858 77.0769 5 77.0769C7.76142 77.0769 10 79.3155 10 82.0769Z" fill="#0B9AEA" fill-opacity="0.46"/>
<circle cx="94.9231" cy="82.0769" r="5" fill="#0B9AEA" fill-opacity="0.46"/>
<circle cx="34.9744" cy="82.0769" r="5" fill="#0B9AEA" fill-opacity="0.46"/>
<circle cx="124.897" cy="82.0769" r="5" fill="#0B9AEA" fill-opacity="0.46"/>
<circle cx="64.9487" cy="82.0769" r="5" fill="#0B9AEA" fill-opacity="0.46"/>
<circle cx="154.872" cy="82.0769" r="5" fill="#0B9AEA" fill-opacity="0.46"/>
<path d="M10 30.6923C10 33.4537 7.76142 35.6923 5 35.6923C2.23858 35.6923 0 33.4537 0 30.6923C0 27.9309 2.23858 25.6923 5 25.6923C7.76142 25.6923 10 27.9309 10 30.6923Z" fill="#0B9AEA" fill-opacity="0.46"/>
<circle cx="94.9231" cy="30.6923" r="5" fill="#0B9AEA" fill-opacity="0.46"/>
<circle cx="34.9744" cy="30.6923" r="5" fill="#0B9AEA" fill-opacity="0.46"/>
<circle cx="124.897" cy="30.6923" r="5" fill="#0B9AEA" fill-opacity="0.46"/>
<circle cx="64.9487" cy="30.6923" r="5" fill="#0B9AEA" fill-opacity="0.46"/>
<circle cx="154.872" cy="30.6923" r="5" fill="#0B9AEA" fill-opacity="0.46"/>
<path d="M10 56.3846C10 59.146 7.76142 61.3846 5 61.3846C2.23858 61.3846 0 59.146 0 56.3846C0 53.6232 2.23858 51.3846 5 51.3846C7.76142 51.3846 10 53.6232 10 56.3846Z" fill="#0B9AEA" fill-opacity="0.46"/>
<circle cx="94.9231" cy="56.3846" r="5" fill="#0B9AEA" fill-opacity="0.46"/>
<circle cx="34.9744" cy="56.3846" r="5" fill="#0B9AEA" fill-opacity="0.46"/>
<circle cx="124.897" cy="56.3846" r="5" fill="#0B9AEA" fill-opacity="0.46"/>
<circle cx="64.9487" cy="56.3846" r="5" fill="#0B9AEA" fill-opacity="0.46"/>
<circle cx="154.872" cy="56.3846" r="5" fill="#0B9AEA" fill-opacity="0.46"/>
<path d="M10 5C10 7.76142 7.76142 10 5 10C2.23858 10 0 7.76142 0 5C0 2.23858 2.23858 0 5 0C7.76142 0 10 2.23858 10 5Z" fill="#0B9AEA" fill-opacity="0.46"/>
<circle cx="94.9231" cy="5" r="5" fill="#0B9AEA" fill-opacity="0.46"/>
<circle cx="34.9744" cy="5" r="5" fill="#0B9AEA" fill-opacity="0.46"/>
<circle cx="124.897" cy="5" r="5" fill="#0B9AEA" fill-opacity="0.46"/>
<circle cx="64.9487" cy="5" r="5" fill="#0B9AEA" fill-opacity="0.46"/>
<circle cx="154.872" cy="5" r="5" fill="#0B9AEA" fill-opacity="0.46"/>
</svg>
